# xmcd
#
# Track frame offsets: 
#        187
#        17590
#        31715
#        41012
#        59840
#        73807
#        97377
#        113957
#        131827
#        148460
#        163255
#
# Disc length: 2503 seconds
#
# Revision: 0
# Processed by: cddbd v1.5.2PL0 Copyright (c) Steve Scherf et al.
# Submitted via: ExactAudioCopy v0.99pb4
#
DISCID=b009c50b
DTITLE=Three Dog Night - Seven Separate Fools
DYEAR=1972
DGENRE=Rock
TTITLE0=Black And White
TTITLE1=My Old Kentucky Home (Turpentine And Dandelion Wine)
TTITLE2=Prelude To Morning
TTITLE3=Pieces Of April
TTITLE4=Going To Circles
TTITLE5=Chained
TTITLE6=Tulsa Turnaround
TTITLE7=In Bed
TTITLE8=Freedom For The Stallion
TTITLE9=The Writings On The Wall
TTITLE10=Midnight Runaway
EXTD=
EXTT0=
EXTT1=
EXTT2=
EXTT3=
EXTT4=
EXTT5=
EXTT6=
EXTT7=
EXTT8=
EXTT9=
EXTT10=
PLAYORDER=
